HIERARCHY
ROOT Hips
{
  OFFSET 3.32254 100.381 249.273
  CHANNELS 6 Xposition Yposition Zposition Zrotation Xrotation Yrotation
  JOINT Spine
  {
    OFFSET 0 10.1816 0.1315
    CHANNELS 6 Xposition Yposition Zposition Zrotation Xrotation Yrotation
    JOINT Spine1
    {
      OFFSET 0 10.0835 -1.0008
      CHANNELS 6 Xposition Yposition Zposition Zrotation Xrotation Yrotation
      JOINT Spine2
      {
        OFFSET 0 9.1 -1.3734
        CHANNELS 6 Xposition Yposition Zposition Zrotation Xrotation Yrotation
        JOINT Neck
        {
          OFFSET 0 16.6717 -2.5162
          CHANNELS 6 Xposition Yposition Zposition Zrotation Xrotation Yrotation
          JOINT Head
          {
            OFFSET 0 9.6179 1.685
            CHANNELS 6 Xposition Yposition Zposition Zrotation Xrotation Yrotation
            JOINT HeadTop_End
            {
              OFFSET 0 17.8152 2.585
              CHANNELS 6 Xposition Yposition Zposition Zrotation Xrotation Yrotation
              End Site
              {
                OFFSET 0 0 0
              }
            }
            JOINT LeftEye
            {
              OFFSET 3.0676 6.4095 9.2836
              CHANNELS 6 Xposition Yposition Zposition Zrotation Xrotation Yrotation
              End Site
              {
                OFFSET 0 0 0
              }
            }
            JOINT RightEye
            {
              OFFSET -3.0676 6.4095 9.2835
              CHANNELS 6 Xposition Yposition Zposition Zrotation Xrotation Yrotation
              End Site
              {
                OFFSET 0 0 0
              }
            }
          }
        }
        JOINT LeftShoulder
        {
          OFFSET 4.5704 10.946 -2.628
          CHANNELS 6 Xposition Yposition Zposition Zrotation Xrotation Yrotation
          JOINT LeftArm
          {
            OFFSET 10.5924 -0.5246 -2.2321
            CHANNELS 6 Xposition Yposition Zposition Zrotation Xrotation Yrotation
            JOINT LeftForeArm
            {
              OFFSET 27.8415 -0.0001 0
              CHANNELS 6 Xposition Yposition Zposition Zrotation Xrotation Yrotation
              JOINT LeftHand
              {
                OFFSET 28.3288 0 0
                CHANNELS 6 Xposition Yposition Zposition Zrotation Xrotation Yrotation
                JOINT LeftHandThumb1
                {
                  OFFSET 2.4661 -1.575 2.6824
                  CHANNELS 6 Xposition Yposition Zposition Zrotation Xrotation Yrotation
                  JOINT LeftHandThumb2
                  {
                    OFFSET 3.2298 -1.8647 1.8647
                    CHANNELS 6 Xposition Yposition Zposition Zrotation Xrotation Yrotation
                    JOINT LeftHandThumb3
                    {
                      OFFSET 2.6526 -1.5315 1.5315
                      CHANNELS 6 Xposition Yposition Zposition Zrotation Xrotation Yrotation
                      End Site
                      {
                        OFFSET 1.9546 -1.1285 1.1285
                      }
                    }
                  }
                }
                JOINT LeftHandIndex1
                {
                  OFFSET 9.1093 -0.5171 2.2601
                  CHANNELS 6 Xposition Yposition Zposition Zrotation Xrotation Yrotation
                  JOINT LeftHandIndex2
                  {
                    OFFSET 3.6764 0 0
                    CHANNELS 6 Xposition Yposition Zposition Zrotation Xrotation Yrotation
                    JOINT LeftHandIndex3
                    {
                      OFFSET 2.8831 0 0
                      CHANNELS 6 Xposition Yposition Zposition Zrotation Xrotation Yrotation
                      End Site
                      {
                        OFFSET 2.3927 0 0
                      }
                    }
                  }
                }
                JOINT LeftHandMiddle1
                {
                  OFFSET 9.5334 0 0
                  CHANNELS 6 Xposition Yposition Zposition Zrotation Xrotation Yrotation
                  JOINT LeftHandMiddle2
                  {
                    OFFSET 3.6982 0 0
                    CHANNELS 6 Xposition Yposition Zposition Zrotation Xrotation Yrotation
                    JOINT LeftHandMiddle3
                    {
                      OFFSET 2.9509 0 0
                      CHANNELS 6 Xposition Yposition Zposition Zrotation Xrotation Yrotation
                      End Site
                      {
                        OFFSET 2.8339 0 0
                      }
                    }
                  }
                }
                JOINT LeftHandRing1
                {
                  OFFSET 9.1045 -0.0439 -1.8651
                  CHANNELS 6 Xposition Yposition Zposition Zrotation Xrotation Yrotation
                  JOINT LeftHandRing2
                  {
                    OFFSET 3.154 0 0
                    CHANNELS 6 Xposition Yposition Zposition Zrotation Xrotation Yrotation
                    JOINT LeftHandRing3
                    {
                      OFFSET 2.9377 0 0
                      CHANNELS 6 Xposition Yposition Zposition Zrotation Xrotation Yrotation
                      End Site
                      {
                        OFFSET 2.6475 0 0
                      }
                    }
                  }
                }
                JOINT LeftHandPinky1
                {
                  OFFSET 8.0778 -0.4887 -3.8061
                  CHANNELS 6 Xposition Yposition Zposition Zrotation Xrotation Yrotation
                  JOINT LeftHandPinky2
                  {
                    OFFSET 3.6 0 0
                    CHANNELS 6 Xposition Yposition Zposition Zrotation Xrotation Yrotation
                    JOINT LeftHandPinky3
                    {
                      OFFSET 2.1142 0 0
                      CHANNELS 6 Xposition Yposition Zposition Zrotation Xrotation Yrotation
                      End Site
                      {
                        OFFSET 1.9757 0 0
                      }
                    }
                  }
                }
              }
            }
          }
        }
        JOINT RightShoulder
        {
          OFFSET -4.57 10.9462 -2.628
          CHANNELS 6 Xposition Yposition Zposition Zrotation Xrotation Yrotation
          JOINT RightArm
          {
            OFFSET -10.5928 -0.5248 -2.2321
            CHANNELS 6 Xposition Yposition Zposition Zrotation Xrotation Yrotation
            JOINT RightForeArm
            {
              OFFSET -27.8415 0 0
              CHANNELS 6 Xposition Yposition Zposition Zrotation Xrotation Yrotation
              JOINT RightHand
              {
                OFFSET -28.3288 0 0.0001
                CHANNELS 6 Xposition Yposition Zposition Zrotation Xrotation Yrotation
                JOINT RightHandPinky1
                {
                  OFFSET -8.0767 -0.4885 -3.806
                  CHANNELS 6 Xposition Yposition Zposition Zrotation Xrotation Yrotation
                  JOINT RightHandPinky2
                  {
                    OFFSET -3.6 0 0.0001
                    CHANNELS 6 Xposition Yposition Zposition Zrotation Xrotation Yrotation
                    JOINT RightHandPinky3
                    {
                      OFFSET -2.1142 0 0
                      CHANNELS 6 Xposition Yposition Zposition Zrotation Xrotation Yrotation
                      End Site
                      {
                        OFFSET -1.9757 0 0
                      }
                    }
                  }
                }
                JOINT RightHandRing1
                {
                  OFFSET -9.1036 -0.0439 -1.8651
                  CHANNELS 6 Xposition Yposition Zposition Zrotation Xrotation Yrotation
                  JOINT RightHandRing2
                  {
                    OFFSET -3.154 0 0
                    CHANNELS 6 Xposition Yposition Zposition Zrotation Xrotation Yrotation
                    JOINT RightHandRing3
                    {
                      OFFSET -2.9377 0 0
                      CHANNELS 6 Xposition Yposition Zposition Zrotation Xrotation Yrotation
                      End Site
                      {
                        OFFSET -2.6475 0 0
                      }
                    }
                  }
                }
                JOINT RightHandMiddle1
                {
                  OFFSET -9.5325 0 0
                  CHANNELS 6 Xposition Yposition Zposition Zrotation Xrotation Yrotation
                  JOINT RightHandMiddle2
                  {
                    OFFSET -3.6982 0 0
                    CHANNELS 6 Xposition Yposition Zposition Zrotation Xrotation Yrotation
                    JOINT RightHandMiddle3
                    {
                      OFFSET -2.9509 0 0
                      CHANNELS 6 Xposition Yposition Zposition Zrotation Xrotation Yrotation
                      End Site
                      {
                        OFFSET -2.8339 0 0.0001
                      }
                    }
                  }
                }
                JOINT RightHandIndex1
                {
                  OFFSET -9.1083 -0.5168 2.2601
                  CHANNELS 6 Xposition Yposition Zposition Zrotation Xrotation Yrotation
                  JOINT RightHandIndex2
                  {
                    OFFSET -3.6764 0 0
                    CHANNELS 6 Xposition Yposition Zposition Zrotation Xrotation Yrotation
                    JOINT RightHandIndex3
                    {
                      OFFSET -2.8831 0 0
                      CHANNELS 6 Xposition Yposition Zposition Zrotation Xrotation Yrotation
                      End Site
                      {
                        OFFSET -2.3927 0 0
                      }
                    }
                  }
                }
                JOINT RightHandThumb1
                {
                  OFFSET -2.4648 -1.5727 2.6826
                  CHANNELS 6 Xposition Yposition Zposition Zrotation Xrotation Yrotation
                  JOINT RightHandThumb2
                  {
                    OFFSET -3.2298 -1.8647 1.8647
                    CHANNELS 6 Xposition Yposition Zposition Zrotation Xrotation Yrotation
                    JOINT RightHandThumb3
                    {
                      OFFSET -2.6526 -1.5314 1.5314
                      CHANNELS 6 Xposition Yposition Zposition Zrotation Xrotation Yrotation
                      End Site
                      {
                        OFFSET -1.9546 -1.1285 1.1285
                      }
                    }
                  }
                }
              }
            }
          }
        }
      }
    }
  }
  JOINT LeftUpLeg
  {
    OFFSET 8.2078 -6.7517 -1.5996
    CHANNELS 6 Xposition Yposition Zposition Zrotation Xrotation Yrotation
    JOINT LeftLeg
    {
      OFFSET 0 -44.3705 0.2846
      CHANNELS 6 Xposition Yposition Zposition Zrotation Xrotation Yrotation
      JOINT LeftFoot
      {
        OFFSET 0 -44.4279 -2.9822
        CHANNELS 6 Xposition Yposition Zposition Zrotation Xrotation Yrotation
        JOINT LeftToeBase
        {
          OFFSET 0 -8.7287 10.7106
          CHANNELS 6 Xposition Yposition Zposition Zrotation Xrotation Yrotation
          End Site
          {
            OFFSET 0 -0.0007 9.2781
          }
        }
      }
    }
  }
  JOINT RightUpLeg
  {
    OFFSET -8.2078 -6.7517 -1.5996
    CHANNELS 6 Xposition Yposition Zposition Zrotation Xrotation Yrotation
    JOINT RightLeg
    {
      OFFSET 0 -44.3705 0.2862
      CHANNELS 6 Xposition Yposition Zposition Zrotation Xrotation Yrotation
      JOINT RightFoot
      {
        OFFSET 0 -44.4277 -2.9838
        CHANNELS 6 Xposition Yposition Zposition Zrotation Xrotation Yrotation
        JOINT RightToeBase
        {
          OFFSET 0 -8.7287 10.7106
          CHANNELS 6 Xposition Yposition Zposition Zrotation Xrotation Yrotation
          End Site
          {
            OFFSET 0 -0.0007 9.2781
          }
        }
      }
    }
  }
}
MOTION
Frames:	4
Frame Time:	0.0333333
3.32254 100.381 249.273 4.17745 23.3974 0.166406 1.77636e-015 10.1816 0.1315 -0.128718 12.3901 -2.9536 0 10.0835 -1.0008 -1.8995 -1.62169 -3.8674 0 9.1 -1.3734 -1.78576 1.31898 -0.118863 1.77636e-015 16.6717 -2.5162 1.78602 -8.12949 9.73185 0 9.6179 1.685 -4.26162 -18.8737 -4.84069 0 17.8152 2.585 -2.48481e-017 0 1.98785e-016 3.0676 6.4095 9.2836 -2.48481e-017 0 1.98785e-016 -3.0676 6.4095 9.2835 -2.48481e-017 0 1.98785e-016 4.5704 10.946 -2.628 -21.0565 1.59754 6.03995 10.5924 -0.5246 -2.2321 -41.7975 15.2209 1.00107 27.8415 -0.0001 -1.42109e-014 -1.97018 -4.44875 -47.7513 28.3288 0 0 -1.96491 -29.2431 -5.64036 2.4661 -1.575 2.6824 -27.605 12.9626 -0.241951 3.2298 -1.8647 1.8647 15.8949 22.593 24.3406 2.6526 -1.5315 1.5315 15.8134 31.2351 46.4353 9.1093 -0.5171 2.2601 -89.8848 -1.87474 3.29491 3.6764 0 0 -77.3455 -4.57374 5.71284 2.8831 0 0 -28.8923 -0.728006 2.82542 9.5334 7.10543e-015 0 -90.8619 -8.30489 5.8835 3.6982 1.42109e-014 -2.84217e-014 -84.1115 -5.25556 5.82455 2.9509 0 2.84217e-014 -51.3656 -2.19905 4.57093 9.1045 -0.0439 -1.8651 -90.1825 -8.23544 5.91227 3.154 0 0 -89.5734 -5.81203 5.85539 2.9377 1.42109e-014 0 -41.7993 -1.48938 3.89908 8.0778 -0.4887 -3.8061 -87.6261 -7.97105 6.01302 3.6 7.10543e-015 -2.84217e-014 -74.208 -4.26291 5.63382 2.1142 -1.42109e-014 0 -50.3229 -2.11636 4.50356 -4.57 10.9462 -2.628 15.0332 1.30046 12.6897 -10.5928 -0.5248 -2.2321 50.2792 12.0142 -9.22368 -27.8415 0 1.42109e-014 1.38963 -3.84397 39.7379 -28.3288 0 0.0001 7.49607 -27.3993 9.37196 -8.0767 -0.4885 -3.806 87.1457 -6.69271 -4.80366 -3.6 1.42109e-014 0.0001 74.3905 -3.39458 -4.47359 -2.1142 0 2.84217e-014 50.4378 -1.68646 -3.57994 -9.1036 -0.0439 -1.8651 89.7044 -6.90404 -4.70566 -3.154 -2.84217e-014 0 89.7924 -4.6289 -4.64568 -2.9377 0 0 41.8908 -1.18688 -3.10012 -9.5325 -1.42109e-014 0 90.3843 -6.95944 -4.67845 -3.6982 0 2.84217e-014 84.3188 -4.18618 -4.62285 -2.9509 0 -2.84217e-014 51.4834 -1.75234 -3.63541 -9.1083 -0.5168 2.2601 89.2195 -0.547627 -2.11098 -3.6764 7.10543e-015 5.68434e-014 77.5362 -3.64356 -4.536 -2.8831 0 -2.84217e-014 28.9517 -0.580166 -2.24698 -2.4648 -1.5727 2.6826 -1.50446 33.5877 33.1848 -3.2298 -1.8647 1.8647 -0.888216 23.5559 -36.1456 -2.6526 -1.5314 1.5314 -5.06874 19.9834 -54.0399 8.2078 -6.7517 -1.5996 -5.84116 -31.8262 3.9133 3.55271e-015 -44.3705 0.2846 -1.55951 25.7814 3.67767 7.10543e-015 -44.4279 -2.9822 7.12464 -11.748 0.591131 -3.55271e-015 -8.7287 10.7106 -8.39219e-007 -12.565 -2.49816e-006 -8.2078 -6.7517 -1.5996 -10.7943 -48.4214 -10.9982 0 -44.3705 0.2862 4.30091 52.6854 -10.5156 0 -44.4277 -2.9838 7.68672 -1.80031 -2.89116 -1.42109e-014 -8.7287 10.7106 -4.08934 -4.37806 -0.0365413 
3.27569 100.035 254.999 3.94862 23.4275 1.191 0 10.1816 0.1315 0.366738 12.1635 -3.55556 0 10.0835 -1.0008 -1.93638 -1.6147 -3.63629 0 9.1 -1.3734 -1.79459 1.35068 -0.0535513 1.77636e-015 16.6717 -2.5162 1.70183 -8.26874 9.23352 0 9.6179 1.685 -4.28848 -19.7281 -5.13567 8.88178e-016 17.8152 2.585 2.98177e-016 1.59028e-015 -0 3.0676 6.4095 9.2836 2.98177e-016 1.59028e-015 -0 -3.0676 6.4095 9.2835 2.98177e-016 1.59028e-015 -0 4.5704 10.946 -2.628 -21.038 1.70999 5.77171 10.5924 -0.5246 -2.2321 -41.7852 14.9356 0.827998 27.8415 -0.0001 -1.42109e-014 -1.97671 -4.45466 -47.8358 28.3288 0 2.84217e-014 -2.32784 -28.7921 -5.32917 2.4661 -1.575 2.6824 -27.605 12.9626 -0.241951 3.2298 -1.8647 1.8647 15.8949 22.593 24.3406 2.6526 -1.5315 1.5315 15.8134 31.2351 46.4353 9.1093 -0.5171 2.2601 -89.8848 -1.87474 3.29491 3.6764 -2.13163e-014 0 -77.3455 -4.57374 5.71284 2.8831 0 5.68434e-014 -28.8923 -0.728006 2.82542 9.5334 0 0 -90.8619 -8.30489 5.8835 3.6982 -7.10543e-015 5.68434e-014 -84.1115 -5.25556 5.82455 2.9509 0 0 -51.3656 -2.19905 4.57093 9.1045 -0.0439 -1.8651 -90.1825 -8.23544 5.91227 3.154 7.10543e-015 0 -89.5734 -5.81203 5.85539 2.9377 1.42109e-014 5.68434e-014 -41.7993 -1.48938 3.89908 8.0778 -0.4887 -3.8061 -87.6261 -7.97105 6.01302 3.6 7.10543e-015 -5.68434e-014 -74.208 -4.26291 5.63382 2.1142 -1.42109e-014 0 -50.3229 -2.11636 4.50356 -4.57 10.9462 -2.628 15.1162 1.31129 12.1942 -10.5928 -0.5248 -2.2321 50.28 11.8104 -9.96443 -27.8415 -2.84217e-014 -1.42109e-014 1.48031 -3.95025 41.0719 -28.3288 0 0.0001 7.09982 -27.2611 8.51842 -8.0767 -0.4885 -3.806 87.1457 -6.69271 -4.80366 -3.6 -2.84217e-014 0.0001 74.3905 -3.39458 -4.47359 -2.1142 -1.42109e-014 -2.84217e-014 50.4378 -1.68646 -3.57994 -9.1036 -0.0439 -1.8651 89.7044 -6.90404 -4.70566 -3.154 0 -2.84217e-014 89.7924 -4.6289 -4.64568 -2.9377 0 0 41.8908 -1.18688 -3.10012 -9.5325 -7.10543e-015 0 90.3843 -6.95944 -4.67845 -3.6982 -1.42109e-014 0 84.3188 -4.18618 -4.62285 -2.9509 0 0 51.4834 -1.75234 -3.63541 -9.1083 -0.5168 2.2601 89.2195 -0.547627 -2.11098 -3.6764 0 0 77.5362 -3.64356 -4.536 -2.8831 0 0 28.9517 -0.580166 -2.24698 -2.4648 -1.5727 2.6826 -1.50446 33.5877 33.1848 -3.2298 -1.8647 1.8647 -0.888216 23.5559 -36.1456 -2.6526 -1.5314 1.5314 -5.06874 19.9834 -54.0399 8.2078 -6.7517 -1.5996 -5.80922 -27.9191 3.39207 -3.55271e-015 -44.3705 0.2846 -1.53391 25.228 3.34471 7.10543e-015 -44.4279 -2.9822 6.78592 -13.4097 0.650445 0 -8.7287 10.7106 -5.3228e-006 -14.3923 -1.80201e-006 -8.2078 -6.7517 -1.5996 -10.7626 -50.6165 -11.1682 1.77636e-015 -44.3705 0.2862 3.59149 42.8334 -9.33858 7.10543e-015 -44.4277 -2.9838 8.31129 -2.95137 -4.08878 0 -8.7287 10.7106 -4.22215 -3.8981 -0.175237 
3.12283 98.905 260.641 3.98692 23.2231 2.05006 0 10.1816 0.1315 0.414411 11.9617 -3.84589 -1.77636e-015 10.0835 -1.0008 -2.10146 -1.59791 -3.21407 -1.77636e-015 9.1 -1.3734 -1.76712 1.37899 -0.0892655 -1.77636e-015 16.6717 -2.5162 1.71032 -8.39251 8.58015 1.77636e-015 9.6179 1.685 -4.27748 -20.463 -5.55762 0 17.8152 2.585 -2.48481e-017 -7.95139e-016 1.98785e-016 3.0676 6.4095 9.2836 -2.48481e-017 -7.95139e-016 1.98785e-016 -3.0676 6.4095 9.2835 -2.48481e-017 -7.95139e-016 1.98785e-016 4.5704 10.946 -2.628 -20.4884 1.96155 5.50564 10.5924 -0.5246 -2.2321 -42.0524 14.7686 0.848262 27.8415 -0.0001 2.84217e-014 -2.03444 -4.50615 -48.575 28.3288 0 2.84217e-014 -2.55716 -28.1651 -4.4671 2.4661 -1.575 2.6824 -27.605 12.9626 -0.241951 3.2298 -1.8647 1.8647 15.8949 22.593 24.3406 2.6526 -1.5315 1.5315 15.8134 31.2351 46.4353 9.1093 -0.5171 2.2601 -89.8848 -1.87474 3.29491 3.6764 0 0 -77.3455 -4.57374 5.71284 2.8831 -7.10543e-015 0 -28.8923 -0.728006 2.82542 9.5334 3.55271e-015 0 -90.8619 -8.30489 5.8835 3.6982 7.10543e-015 5.68434e-014 -84.1115 -5.25556 5.82455 2.9509 0 -5.68434e-014 -51.3656 -2.19905 4.57093 9.1045 -0.0439 -1.8651 -90.1825 -8.23544 5.91227 3.154 0 5.68434e-014 -89.5734 -5.81203 5.85539 2.9377 0 0 -41.7993 -1.48938 3.89908 8.0778 -0.4887 -3.8061 -87.6261 -7.97105 6.01302 3.6 -7.10543e-015 0 -74.208 -4.26291 5.63382 2.1142 1.42109e-014 0 -50.3229 -2.11636 4.50356 -4.57 10.9462 -2.628 14.3785 1.32201 11.6992 -10.5928 -0.5248 -2.2321 51.3535 11.9831 -10.7837 -27.8415 0 -1.42109e-014 1.57654 -4.05778 42.4502 -28.3288 2.84217e-014 0.0001 6.38391 -27.7104 7.62099 -8.0767 -0.4885 -3.806 87.1457 -6.69271 -4.80366 -3.6 -1.42109e-014 0.0001 74.3905 -3.39458 -4.47359 -2.1142 0 2.84217e-014 50.4378 -1.68646 -3.57994 -9.1036 -0.0439 -1.8651 89.7044 -6.90404 -4.70566 -3.154 1.42109e-014 0 89.7924 -4.6289 -4.64568 -2.9377 0 2.84217e-014 41.8908 -1.18688 -3.10012 -9.5325 0 5.68434e-014 90.3843 -6.95944 -4.67845 -3.6982 -1.42109e-014 -2.84217e-014 84.3188 -4.18618 -4.62285 -2.9509 0 0 51.4834 -1.75234 -3.63541 -9.1083 -0.5168 2.2601 89.2195 -0.547627 -2.11098 -3.6764 0 0 77.5362 -3.64356 -4.536 -2.8831 0 0 28.9517 -0.580166 -2.24698 -2.4648 -1.5727 2.6826 -1.50446 33.5877 33.1848 -3.2298 -1.8647 1.8647 -0.888216 23.5559 -36.1456 -2.6526 -1.5314 1.5314 -5.06874 19.9834 -54.0399 8.2078 -6.7517 -1.5996 -5.87379 -24.5463 2.53126 0 -44.3705 0.2846 -1.5282 26.3702 3.5753 0 -44.4279 -2.9822 6.28961 -16.463 0.755538 3.55271e-015 -8.7287 10.7106 -7.95285e-006 -15.681 -3.84904e-006 -8.2078 -6.7517 -1.5996 -11.5621 -52.7086 -12.7516 0 -44.3705 0.2862 2.81117 34.5076 -6.77522 -7.10543e-015 -44.4277 -2.9838 7.58623 -6.44234 -2.62815 0 -8.7287 10.7106 -5.527e-006 -2.90291 -5.57434e-006 
2.88822 97.2221 266.266 4.20863 22.9013 2.73814 -1.77636e-015 10.1816 0.1315 0.262221 11.7863 -3.96621 0 10.0835 -1.0008 -2.30549 -1.57536 -2.67802 1.77636e-015 9.1 -1.3734 -1.72601 1.40458 -0.15064 0 16.6717 -2.5162 1.77532 -8.49413 7.83204 1.77636e-015 9.6179 1.685 -4.23937 -20.9419 -6.05754 8.88178e-016 17.8152 2.585 -3.72721e-016 -1.59028e-015 -0 3.0676 6.4095 9.2836 -3.72721e-016 -1.59028e-015 -0 -3.0676 6.4095 9.2835 -3.72721e-016 -1.59028e-015 -0 4.5704 10.946 -2.628 -19.6422 2.2742 5.26208 10.5924 -0.5246 -2.2321 -42.51 14.6898 0.914958 27.8415 -0.0001 1.42109e-014 -2.10868 -4.57037 -49.5132 28.3288 0 -2.84217e-014 -2.84584 -27.5183 -3.47727 2.4661 -1.575 2.6824 -27.605 12.9626 -0.241951 3.2298 -1.8647 1.8647 15.8949 22.593 24.3406 2.6526 -1.5315 1.5315 15.8134 31.2351 46.4353 9.1093 -0.5171 2.2601 -89.8848 -1.87474 3.29491 3.6764 0 5.68434e-014 -77.3455 -4.57374 5.71284 2.8831 7.10543e-015 5.68434e-014 -28.8923 -0.728006 2.82542 9.5334 -3.55271e-015 5.68434e-014 -90.8619 -8.30489 5.8835 3.6982 1.42109e-014 0 -84.1115 -5.25556 5.82455 2.9509 0 0 -51.3656 -2.19905 4.57093 9.1045 -0.0439 -1.8651 -90.1825 -8.23544 5.91227 3.154 -7.10543e-015 0 -89.5734 -5.81203 5.85539 2.9377 -1.42109e-014 0 -41.7993 -1.48938 3.89908 8.0778 -0.4887 -3.8061 -87.6261 -7.97105 6.01302 3.6 0 0 -74.208 -4.26291 5.63382 2.1142 -1.42109e-014 -5.68434e-014 -50.3229 -2.11636 4.50356 -4.57 10.9462 -2.628 13.1521 1.3456 11.1957 -10.5928 -0.5248 -2.2321 53.0883 12.0311 -11.9415 -27.8415 0 1.42109e-014 1.71042 -4.19913 44.3101 -28.3288 0 0.0001 5.4491 -28.0716 6.45715 -8.0767 -0.4885 -3.806 87.1457 -6.69271 -4.80366 -3.6 -1.42109e-014 0.0001 74.3905 -3.39458 -4.47359 -2.1142 0 0 50.4378 -1.68646 -3.57994 -9.1036 -0.0439 -1.8651 89.7044 -6.90404 -4.70566 -3.154 0 0 89.7924 -4.6289 -4.64568 -2.9377 0 -5.68434e-014 41.8908 -1.18688 -3.10012 -9.5325 0 5.68434e-014 90.3843 -6.95944 -4.67845 -3.6982 0 0 84.3188 -4.18618 -4.62285 -2.9509 0 5.68434e-014 51.4834 -1.75234 -3.63541 -9.1083 -0.5168 2.2601 89.2195 -0.547627 -2.11098 -3.6764 -7.10543e-015 0 77.5362 -3.64356 -4.536 -2.8831 0 5.68434e-014 28.9517 -0.580166 -2.24698 -2.4648 -1.5727 2.6826 -1.50446 33.5877 33.1848 -3.2298 -1.8647 1.8647 -0.888216 23.5559 -36.1456 -2.6526 -1.5314 1.5314 -5.06874 19.9834 -54.0399 8.2078 -6.7517 -1.5996 -5.74855 -21.4647 2.36763 0 -44.3705 0.2846 -1.51692 28.5074 3.2379 0 -44.4279 -2.9822 5.69398 -19.754 0.826155 0 -8.7287 10.7106 -2.00428e-006 -17.3036 1.35526e-006 -8.2078 -6.7517 -1.5996 -13.7816 -57.1099 -16.2351 -3.55271e-015 -44.3705 0.2862 2.3499 32.4605 -2.64557 0 -44.4277 -2.9838 2.79704 -10.938 -0.73412 7.10543e-015 -8.7287 10.7106 1.30824e-006 -1.60012 2.84299e-006 
